<svg width="184" height="45" fill="none" xmlns="http://www.w3.org/2000/svg"><g clip-path="url(#a)" fill="#fff"><path d="m3 39-3 6V12C0 5 5 0 12 0h33c-9 3-19 9-26 17L3 39Z"/><path d="M45 0S31 7 26 17c-2 5-3 12-7 16-3 3-7 4-10 5-3 2-7 4-9 7h33c7 0 12-5 12-12V0Zm17 24v-9h5c1 0 2 0 2 2v6a2 2 0 0 1-2 2h-4l-1-1Zm-2-12-1 1v22h3v-8l2 1h3c3 0 5-2 5-5v-7c0-3-2-4-5-4h-7Zm16 0v16h3V12h-3Zm0-7v3h3V5h-3Zm9 13v-2l2-1h4l2 1v3h-7l-1-1Zm2-6c-2 0-4 2-4 5v6a5 5 0 0 0 4 5h8v-3h-8a2 2 0 0 1-2-2v-3l2 1h8l1-1v-4c0-2-2-4-5-4h-4Zm15 11v-6c0-2 1-2 2-2h4l2 1v9h-6l-2-2Zm8-19v9l-2-1h-4c-3 0-5 2-5 5v6a5 5 0 0 0 5 5h8l1-1V4h-3Zm11 20v-9h5c1 0 2 0 2 2v6a2 2 0 0 1-2 2h-4l-1-1Zm-2-12-1 1v22h3v-8l2 1h3c3 0 5-2 5-5v-7c0-3-2-4-5-4h-7Zm16 0v16h2V12h-2Zm0-7v3h2V5h-2Zm9 19v-9h6c1 0 2 0 2 2v6a2 2 0 0 1-2 2h-4a2 2 0 0 1-2-1Zm-1-12-2 1v22h3v-8l2 1h4c2 0 5-2 5-5v-7c0-3-3-4-5-4h-7Zm18 6v-2l2-1h4l2 1v3h-8v-1Zm2-6c-3 0-5 2-5 5v6a5 5 0 0 0 5 5h8v-3h-8a2 2 0 0 1-2-2v-3l1 1h9l1-1v-4c0-2-2-4-5-4h-4Zm17 0-2 1v-1h-3v15l1 1h2V16l2-1h4v-3h-4Z"/></g><defs><clipPath id="a"><path fill="#fff" d="M0 0h184v45H0z"/></clipPath></defs></svg>