<svg width="184" height="45" fill="none" xmlns="http://www.w3.org/2000/svg"><g clip-path="url(#a)" fill="#fff"><path d="M3.225 38.91 0 44.96V11.987C0 5.353 5.361 0 12.005 0H44.99c-9.363 2.91-19.115 9.466-25.564 16.953-7.11 8.185-11.112 13.81-16.201 21.957Z"/><path d="M45.068 0S30.693 6.711 26.303 16.797c-2.33 5.393-2.914 11.871-7.149 15.944-2.913 2.794-6.993 3.84-10.567 5.664C6.256 39.608 1.905 42.478.04 45.04h33.023c6.644 0 12.005-5.354 12.005-11.987V0Zm16.668 23.547v-8.534c0-.194.155-.35.35-.35h5.4c1.01 0 1.864.428 1.864 1.863v6.75a1.864 1.864 0 0 1-1.864 1.862H63.25c-.816-.116-1.476-.776-1.515-1.59Zm-1.749-11.482c-.583 0-1.01.426-1.01.97v22.344h2.37c.194 0 .35-.155.35-.349v-8.302c.388.505 1.165 1.01 2.137 1.01h3.613c2.525 0 4.584-1.785 4.584-4.423v-6.828c0-3.103-2.059-4.422-4.584-4.422h-7.46Zm15.93 0v15.323c0 .194.155.35.349.35h2.37V12.374c0-.194-.155-.31-.35-.31h-2.37Zm0-7.022v2.56c0 .194.155.35.349.35h2.37v-2.56a.348.348 0 0 0-.35-.35h-2.37Zm9.401 13.151v-1.707c0-1.241.816-1.862 1.865-1.862h4.313c1.243 0 1.826.582 1.826 1.862v1.707c0 .194-.156.35-.35.35h-7.304c-.233-.04-.35-.195-.35-.35Zm1.865-6.13c-2.525 0-4.584 1.552-4.584 4.462v6.634a4.565 4.565 0 0 0 4.584 4.577h8.12v-2.25a.348.348 0 0 0-.35-.35h-7.77a1.84 1.84 0 0 1-1.865-1.861v-2.793c.272.388.739.582 1.244.582h8.586c.738 0 .816-.427.816-.97v-3.608c0-2.91-2.02-4.461-4.585-4.461h-4.196v.039Zm15.075 11.212v-6.75c0-1.048.815-1.862 1.864-1.862h4.235c.777.077 1.438.737 1.515 1.59v8.535c0 .194-.155.31-.349.31h-5.401c-1.049.039-1.864-.776-1.864-1.823Zm7.925-19.048a.348.348 0 0 0-.349.35v8.495c-.389-.543-1.166-1.008-2.176-1.008h-3.652c-2.525 0-4.507 2.017-4.507 4.577v6.518a4.565 4.565 0 0 0 4.585 4.577h7.459c.583 0 1.01-.427 1.01-1.008v-22.5h-2.37Zm10.374 19.32v-8.535c0-.194.155-.35.349-.35h5.362c1.01 0 1.865.428 1.865 1.863v6.75a1.864 1.864 0 0 1-1.865 1.862h-4.235c-.816-.116-1.438-.776-1.476-1.59Zm-1.749-11.483c-.583 0-1.01.426-1.01.97v22.344h2.37c.194 0 .35-.155.35-.349v-8.302c.388.505 1.165 1.01 2.137 1.01h3.613c2.525 0 4.584-1.785 4.584-4.423v-6.828c0-3.103-2.059-4.422-4.584-4.422h-7.46Zm15.929 0v15.323c0 .194.156.35.35.35h2.37V12.374c0-.194-.156-.31-.35-.31h-2.37Zm0-7.022v2.56c0 .194.156.35.35.35h2.37v-2.56a.348.348 0 0 0-.35-.35h-2.37Zm9.48 18.504v-8.534c0-.194.155-.35.35-.35h5.4c1.01 0 1.865.428 1.865 1.863v6.75a1.864 1.864 0 0 1-1.865 1.862h-4.235a1.773 1.773 0 0 1-1.515-1.59Zm-1.709-11.482c-.583 0-1.011.426-1.011.97v22.344h2.37c.195 0 .35-.155.35-.349v-8.302c.389.505 1.166 1.01 2.137 1.01h3.613c2.525 0 4.584-1.785 4.584-4.423v-6.828c0-3.103-2.059-4.422-4.584-4.422h-7.459Zm18.532 6.129v-1.707c0-1.241.816-1.862 1.865-1.862h4.312c1.204 0 1.826.582 1.826 1.862v1.707c0 .194-.155.35-.35.35h-7.304c-.233-.04-.349-.195-.349-.35Zm1.865-6.13c-2.526 0-4.585 1.552-4.585 4.462v6.634a4.565 4.565 0 0 0 4.585 4.577h8.119v-2.25a.348.348 0 0 0-.349-.35h-7.77a1.84 1.84 0 0 1-1.865-1.861v-2.793c.272.388.738.582 1.204.582h8.586c.738 0 .816-.427.816-.97v-3.608c0-2.91-2.02-4.461-4.584-4.461h-4.157v.039Zm17.444 0c-.971 0-1.749.466-2.137 1.01v-.699c0-.194-.155-.31-.35-.31h-2.37v15.323c0 .194.156.35.35.35h2.37V16.098c.078-.737.66-1.396 1.515-1.396h3.924c.194 0 .35-.156.35-.35v-2.25h-3.652v-.038Z"/></g><defs><clipPath id="a"><path fill="#fff" d="M0 0h184v45H0z"/></clipPath></defs></svg>